<?xml version="1.0" encoding="utf-8"?>
<!-- Generator: Adobe Illustrator 23.0.1, SVG Export Plug-In . SVG Version: 6.00 Build 0)  -->
<svg version="1.1" id="Layer_1" xmlns="http://www.w3.org/2000/svg" xmlns:xlink="http://www.w3.org/1999/xlink" x="0px" y="0px"
	 viewBox="0 0 400 400" style="enable-background:new 0 0 400 400;" xml:space="preserve">
<style type="text/css">
	.st0{fill:#FF5E65;}
	.st1{fill:none;stroke:#F6B800;stroke-width:2;stroke-miterlimit:10;}
	.st2{fill:none;}
	.st3{fill:#432918;}
	.st4{font-family:'BebasNeueBold';}
	.st5{font-size:57.5834px;}
	.st6{fill:#F6B800;}
	.st7{fill:#F9D15C;}
	.st8{font-size:57.5837px;}
</style>
<g>
	<g>
		<path class="st0" d="M364,134.6c-17.66,7.73-21.24,21.48-14.27,36.73l-205.45,90.5c-5.1-11.51-10-26.1-36.73-14.27l-39.08-88.72
			c17.33-7.81,22.98-16.89,14.27-36.73l205.45-90.5c9.08,21.2,16.9,22.83,36.73,14.27L364,134.6z"/>
		<path class="st1" d="M334.45,137.02c-14.12,6.18-16.99,17.19-11.41,29.39l-164.36,72.4c-4.08-9.2-8-20.87-29.39-11.41
			l-31.26-70.97c13.87-6.25,18.38-13.51,11.41-29.39l164.36-72.4c7.26,16.95,13.52,18.26,29.38,11.41L334.45,137.02z"/>
		
			<rect x="73.05" y="126.09" transform="matrix(0.9151 -0.4031 0.4031 0.9151 -40.7969 99.6173)" class="st2" width="286.37" height="41.25"/>
		<text transform="matrix(0.9152 -0.4031 0.4031 0.9152 169.6318 188.7574)" class="st3 st4 st5">ticket</text>
		<path class="st6" d="M266.26,75.97c1.08,2.47-0.03,5.34-2.5,6.43L136.7,138.37c-2.47,1.08-5.34-0.03-6.43-2.5l0,0
			c-1.08-2.46,0.03-5.34,2.5-6.43l127.07-55.97C262.3,72.39,265.18,73.51,266.26,75.97L266.26,75.97z"/>
		<path class="st6" d="M302.2,157.57c1.08,2.46-0.04,5.34-2.5,6.43l-127.07,55.97c-2.47,1.09-5.34-0.03-6.43-2.49l0,0
			c-1.09-2.47,0.03-5.34,2.49-6.43l127.07-55.97C298.24,153.98,301.12,155.11,302.2,157.57L302.2,157.57z"/>
		<path class="st3" d="M123.95,163.01c1.24,2.81-0.04,6.1-2.85,7.34c-2.82,1.24-6.11-0.04-7.35-2.85c-1.24-2.82,0.04-6.11,2.85-7.34
			C119.42,158.92,122.71,160.2,123.95,163.01z"/>
		<path class="st3" d="M132.93,183.41c1.24,2.82-0.04,6.11-2.85,7.35c-2.82,1.24-6.11-0.04-7.34-2.85
			c-1.24-2.82,0.03-6.11,2.85-7.35C128.4,179.32,131.69,180.6,132.93,183.41z"/>
		<path class="st3" d="M141.92,203.81c1.24,2.82-0.04,6.1-2.86,7.34c-2.82,1.24-6.1-0.04-7.35-2.85c-1.24-2.81,0.04-6.11,2.85-7.35
			C137.39,199.71,140.68,201,141.92,203.81z"/>
		<path class="st3" d="M300.74,85.14c1.24,2.82-0.04,6.11-2.85,7.35c-2.82,1.24-6.11-0.04-7.35-2.85c-1.24-2.82,0.04-6.11,2.85-7.35
			C296.21,81.04,299.5,82.32,300.74,85.14z"/>
		<path class="st3" d="M309.73,105.54c1.24,2.81-0.04,6.11-2.85,7.35c-2.82,1.24-6.11-0.04-7.34-2.86
			c-1.24-2.82,0.04-6.11,2.85-7.35C305.19,101.45,308.48,102.72,309.73,105.54z"/>
		<path class="st3" d="M318.71,125.94c1.24,2.82-0.03,6.1-2.85,7.35c-2.82,1.24-6.11-0.04-7.35-2.85c-1.24-2.82,0.04-6.11,2.86-7.35
			C314.18,121.84,317.47,123.12,318.71,125.94z"/>
	</g>
	<g>
		<path class="st7" d="M323.77,290.89c-19.24,1.15-27.35,12.82-26.08,29.54L73.63,334.39c-0.81-12.56-0.37-27.94-29.54-26.08
			l-6.03-96.75c18.97-1.35,27.4-7.92,26.08-29.54l224.07-13.96c1.2,23.03,7.98,27.26,29.54,26.08L323.77,290.89z"/>
		<path class="st1" d="M295.2,282.96c-15.39,0.92-21.88,10.26-20.86,23.63L95.09,317.76c-0.65-10.05-0.3-22.35-23.63-20.86
			l-4.82-77.4c15.17-1.07,21.92-6.33,20.86-23.63l179.26-11.17c0.96,18.42,6.38,21.81,23.63,20.86L295.2,282.96z"/>
		
			<rect x="37.73" y="230.6" transform="matrix(0.9981 -0.0622 0.0622 0.9981 -15.2662 11.7317)" class="st2" width="286.37" height="41.25"/>
		<text transform="matrix(0.9981 -0.0622 0.0622 0.9981 122.6599 274.5721)" class="st3 st4 st8">ticket</text>
		<path class="st6" d="M252.3,202.11c0.17,2.69-1.88,5-4.56,5.17l-138.58,8.63c-2.69,0.17-5-1.88-5.17-4.56l0,0
			c-0.17-2.69,1.88-5,4.56-5.17l138.58-8.63C249.82,197.38,252.14,199.42,252.3,202.11L252.3,202.11z"/>
		<path class="st6" d="M257.85,291.1c0.17,2.69-1.88,5-4.56,5.17L114.7,304.9c-2.69,0.17-5-1.88-5.17-4.56l0,0
			c-0.17-2.69,1.88-5,4.56-5.17l138.58-8.63C255.36,286.37,257.68,288.41,257.85,291.1L257.85,291.1z"/>
		<path class="st3" d="M88.68,234.63c0.19,3.07-2.14,5.72-5.22,5.91c-3.07,0.19-5.72-2.15-5.91-5.22c-0.19-3.07,2.14-5.71,5.21-5.91
			C85.85,229.23,88.49,231.57,88.68,234.63z"/>
		<path class="st3" d="M90.07,256.88c0.19,3.07-2.14,5.72-5.22,5.91c-3.07,0.19-5.72-2.14-5.91-5.22c-0.19-3.07,2.14-5.72,5.21-5.91
			C87.23,251.48,89.88,253.81,90.07,256.88z"/>
		<path class="st3" d="M91.45,279.13c0.19,3.07-2.14,5.72-5.22,5.91c-3.07,0.19-5.72-2.14-5.91-5.22c-0.19-3.07,2.14-5.72,5.22-5.91
			C88.62,273.72,91.26,276.06,91.45,279.13z"/>
		<path class="st3" d="M281.49,222.63c0.19,3.07-2.14,5.72-5.22,5.91c-3.07,0.19-5.72-2.14-5.91-5.22
			c-0.19-3.07,2.14-5.72,5.21-5.91C278.66,217.22,281.3,219.56,281.49,222.63z"/>
		<path class="st3" d="M282.88,244.87c0.19,3.07-2.14,5.72-5.22,5.91c-3.07,0.19-5.72-2.15-5.91-5.22
			c-0.19-3.07,2.14-5.71,5.21-5.91C280.04,239.47,282.69,241.8,282.88,244.87z"/>
		<path class="st3" d="M284.26,267.12c0.19,3.07-2.14,5.72-5.22,5.91c-3.07,0.19-5.72-2.14-5.91-5.22
			c-0.19-3.07,2.14-5.72,5.21-5.91C281.43,261.72,284.07,264.05,284.26,267.12z"/>
	</g>
</g>
</svg>
